HIERARCHY
ROOT Hips
{
	OFFSET 0.00000 0.00000 0.00000
	CHANNELS 6 Xposition Yposition Zposition Zrotation Yrotation Xrotation 
	JOINT RightUpLegDummy
	{
		OFFSET 0 0 0
		CHANNELS 3 Zrotation Yrotation Xrotation
		JOINT RightUpLeg
		{
			OFFSET -3.52197 -3.41223 0.04002
			CHANNELS 3 Zrotation Yrotation Xrotation
			JOINT RightLeg
			{
				OFFSET 0.00006 -17.42390 1.60435
				CHANNELS 3 Zrotation Yrotation Xrotation
				JOINT RightFoot
				{
					OFFSET 0.06154 -16.50078 -1.63900
					CHANNELS 3 Zrotation Yrotation Xrotation
					JOINT RightToes
					{
						OFFSET 0.00298 -1.73825 3.34613
						CHANNELS 3 Zrotation Yrotation Xrotation
						End Site
						{
							OFFSET 0.00480 -0.05416 3.85043
						}
					}
				}
			}
		}
	}
	JOINT SpineDummy
	{
		OFFSET 0 0 0
		CHANNELS 3 Zrotation Yrotation Xrotation
		JOINT Spine
		{
			OFFSET 0.00000 4.68130 0.00000
			CHANNELS 3 Zrotation Yrotation Xrotation
			JOINT Spine1
			{
				OFFSET -0.00000 10.10138 0.05002
				CHANNELS 3 Zrotation Yrotation Xrotation
				JOINT HEadDummy
				{
					OFFSET 0 0 0
					CHANNELS 3 Zrotation Yrotation Xrotation
					JOINT Head
					{
						OFFSET -0.00000 3.43865 0.00438
						CHANNELS 3 Zrotation Yrotation Xrotation
						End Site
						{
							OFFSET -0.11417 5.02924 0.98962
						}
					}
				}
				JOINT LeftShoulder1Dummy
				{
					OFFSET 0 0 0
					CHANNELS 3 Zrotation Yrotation Xrotation
					JOINT LeftShoulder1
					{
						OFFSET 3.53937 -0.14262 -0.08662
						CHANNELS 3 Zrotation Yrotation Xrotation
						JOINT LeftArm
						{
							OFFSET 4.04833 -0.00133 0.12681
							CHANNELS 3 Zrotation Yrotation Xrotation
							JOINT LeftForeArm
							{
								OFFSET 10.33880 -0.01036 -0.55515
								CHANNELS 3 Zrotation Yrotation Xrotation
								JOINT LeftHand
								{
									OFFSET 8.69677 0.07543 0.40060
									CHANNELS 3 Zrotation Yrotation Xrotation
									End Site
									{
										OFFSET 5.28377 -0.21905 0.59205
									}
								}
							}
						}
					}
				}
				JOINT RightShoulderDummy
				{
					OFFSET 0 0 0
					CHANNELS 3 Zrotation Yrotation Xrotation
					JOINT RightShoulder
					{
						OFFSET -3.53937 -0.14262 -0.08660
						CHANNELS 3 Zrotation Yrotation Xrotation
						JOINT RightArm
						{
							OFFSET -4.04833 -0.00133 0.12683
							CHANNELS 3 Zrotation Yrotation Xrotation
							JOINT RightForeArm
							{
								OFFSET -10.37987 -0.01039 -0.55511
								CHANNELS 3 Zrotation Yrotation Xrotation
								JOINT RightHand
								{
									OFFSET -8.67398 0.07538 0.40058
									CHANNELS 3 Zrotation Yrotation Xrotation
									End Site
									{
										OFFSET -5.24810 -0.21916 0.59204
									}
								}
							}
						}
					}
				}
			}
		}
	}
	JOINT LeftUpLegDummy
	{
		OFFSET 0 0 0
		CHANNELS 3 Zrotation Yrotation Xrotation
		JOINT LeftUpLeg
		{
			OFFSET 3.52197 -3.41223 0.04002
			CHANNELS 3 Zrotation Yrotation Xrotation
			JOINT LeftLeg
			{
				OFFSET -0.00012 -17.42399 1.60337
				CHANNELS 3 Zrotation Yrotation Xrotation
				JOINT LeftFoot
				{
					OFFSET -0.09972 -16.50070 -1.63802
					CHANNELS 3 Zrotation Yrotation Xrotation
					JOINT LeftToes
					{
						OFFSET -0.01575 -1.73823 3.34611
						CHANNELS 3 Zrotation Yrotation Xrotation
						End Site
						{
							OFFSET 0.03150 -0.01868 3.85031
						}
					}
				}
			}
		}
	}
}
MOTION
Frames: 11
Frame Time: 0.033333
-66.9585 41.1414 30.7369 13.9738 76.7960 17.8569 0.0000 0.0000 0.0000 -4.4012 -6.6406 -0.6988 -3.9572 -13.7967 8.8950 7.0898 -0.1649 -9.2354 -0.0000 -0.0000 0.0000 0.0000 0.0000 0.0000 -3.0628 0.1504 -10.5448 0.2575 0.5268 17.0976 0.0000 0.0000 0.0000 -2.7005 2.5721 -9.8622 0.0000 0.0000 0.0000 -19.5466 -2.1005 1.4592 -56.3732 -15.1544 -17.5082 -12.6530 -2.5809 32.5932 15.0900 -1.5413 -0.8884 0.0000 0.0000 0.0000 17.4559 1.1548 1.1229 61.1949 15.3433 12.0996 6.1408 17.6674 13.1483 -3.4670 1.9378 -0.2011 0.0000 0.0000 0.0000 -6.4975 -2.7971 -3.7248 -0.9317 20.0920 0.8252 5.1670 -0.4199 -1.8142 -0.0000 0.0000 -0.0000
-67.0548 41.1541 30.7763 14.2846 76.9490 18.1766 0.0000 0.0000 0.0000 -4.3666 -6.7376 -0.7187 -3.8008 -13.9077 8.6710 6.8941 -0.1720 -9.0455 -0.0000 -0.0000 0.0000 0.0000 0.0000 0.0000 -2.9501 0.0738 -10.5866 0.2035 0.4690 17.2020 0.0000 0.0000 0.0000 -2.5513 2.6195 -9.9286 0.0000 0.0000 0.0000 -18.7409 -2.2362 1.4518 -57.1275 -15.9526 -16.1194 -12.8286 -3.3624 31.7044 15.3280 -1.6883 -0.9212 0.0000 0.0000 0.0000 17.9961 0.9490 1.0959 60.6493 15.6133 14.4194 5.4428 18.5103 9.7667 -4.4470 1.6218 -0.2546 0.0000 0.0000 0.0000 -6.4207 -2.8321 -3.8269 -0.9892 20.0100 0.6930 5.1344 -0.4283 -1.5972 -0.0000 0.0000 -0.0000
-67.2387 41.1775 30.8654 14.8685 77.2849 18.8360 0.0000 0.0000 0.0000 -4.3069 -6.9887 -0.8117 -3.3914 -14.0823 8.2494 6.5304 -0.1840 -8.6839 -0.0000 -0.0000 0.0000 0.0000 0.0000 0.0000 -3.4470 -0.1912 -10.7293 1.0157 -0.0226 17.4339 0.0000 0.0000 0.0000 -2.4702 3.0293 -10.0479 0.0000 0.0000 0.0000 -18.0929 -2.2999 1.4330 -58.0492 -17.0200 -11.8621 -12.9245 -5.9293 28.6748 15.4093 -2.1112 -0.9793 0.0000 0.0000 0.0000 18.2781 0.9332 1.1036 59.9570 16.0722 15.8871 4.7494 19.1801 8.5320 -4.5420 2.2228 -0.2776 0.0000 0.0000 0.0000 -6.2424 -2.8905 -4.1415 -1.0414 19.7992 0.5718 5.0552 -0.4402 -1.2267 -0.0000 0.0000 -0.0000
-67.4306 41.1958 30.9765 15.5334 77.6437 19.5164 0.0000 0.0000 0.0000 -4.2005 -7.2059 -0.9060 -3.0522 -14.3095 7.9553 6.1535 -0.1906 -8.3773 -0.0000 -0.0000 0.0000 0.0000 0.0000 0.0000 -4.4432 -0.4487 -10.9810 2.3586 -0.6495 18.0339 0.0000 0.0000 0.0000 -2.2925 3.4285 -10.3423 0.0000 0.0000 0.0000 -17.7023 -2.4086 1.4383 -59.0172 -17.7448 -4.0594 -12.0169 -10.1649 22.1320 15.0626 -2.5621 -1.0122 0.0000 0.0000 0.0000 18.1988 0.9965 1.1160 59.4049 16.6689 14.0035 4.9942 18.7773 11.2253 -3.8079 2.9815 -0.2491 0.0000 0.0000 0.0000 -6.0658 -3.0037 -4.5236 -0.9281 19.5967 0.7202 4.8698 -0.4383 -0.9291 -0.0000 0.0000 -0.0000
-67.5968 41.1986 31.0807 15.8653 77.9366 19.6383 0.0000 0.0000 0.0000 -3.9486 -7.1686 -0.8674 -3.0825 -14.6731 7.9548 5.8749 -0.1903 -8.2322 -0.0000 -0.0000 0.0000 0.0000 0.0000 0.0000 -5.2351 -0.5213 -10.9966 3.4401 -1.0305 18.7345 0.0000 0.0000 0.0000 -1.9308 3.3811 -10.7049 0.0000 0.0000 0.0000 -17.2866 -2.6868 1.4822 -60.0177 -18.1177 5.5486 -9.7222 -14.6195 13.1615 14.5699 -2.8064 -1.0070 0.0000 0.0000 0.0000 18.1064 0.9221 1.0938 58.9018 17.3156 9.0002 6.2211 17.2567 15.9853 -3.4611 3.0875 -0.2262 0.0000 0.0000 0.0000 -5.8919 -3.1141 -4.8418 -0.5765 19.4446 1.3696 4.5716 -0.4136 -0.8763 -0.0000 0.0000 -0.0000
-67.7466 41.1887 31.1698 15.5635 78.1521 18.9807 0.0000 0.0000 0.0000 -3.5458 -6.9078 -0.7420 -3.3632 -15.1005 8.1409 5.7211 -0.1881 -8.1880 -0.0000 -0.0000 0.0000 0.0000 0.0000 0.0000 -5.5134 -0.4453 -10.5161 4.0596 -1.1588 18.9131 0.0000 0.0000 0.0000 -1.5204 2.9865 -10.7685 0.0000 0.0000 0.0000 -16.9519 -2.9271 1.5199 -60.8037 -18.2886 14.0791 -6.9319 -17.9821 4.8174 14.2329 -2.8424 -0.9871 0.0000 0.0000 0.0000 18.1203 0.8462 1.0756 58.3884 17.6499 3.8267 7.5221 15.4887 19.3993 -4.0895 2.6704 -0.2607 0.0000 0.0000 0.0000 -5.6431 -3.0986 -5.1433 -0.1203 19.2860 2.4048 4.2733 -0.3790 -1.0417 -0.0000 0.0000 -0.0000
-67.8807 41.1731 31.2486 14.7881 78.2024 17.9443 0.0000 0.0000 0.0000 -3.1743 -6.7081 -0.7450 -3.5168 -15.2606 8.3926 5.5986 -0.1836 -8.2126 -0.0000 -0.0000 0.0000 0.0000 0.0000 0.0000 -5.4631 -0.3188 -9.8753 4.4155 -1.1640 18.5285 0.0000 0.0000 0.0000 -1.1723 2.6390 -10.3520 0.0000 0.0000 0.0000 -16.8304 -2.8848 1.5027 -61.3437 -18.2165 20.2655 -4.5354 -20.2211 -1.1861 14.0517 -2.7760 -0.9665 0.0000 0.0000 0.0000 18.2117 0.9640 1.1085 57.8959 17.4098 1.0998 8.3352 14.3869 19.0470 -5.6972 1.7458 -0.3333 0.0000 0.0000 0.0000 -5.3382 -2.9239 -5.5292 0.2676 19.1776 3.4603 4.0568 -0.3491 -1.2902 -0.0000 0.0000 -0.0000
-67.9797 41.1573 31.3168 14.0098 77.9855 17.0605 0.0000 0.0000 0.0000 -3.0177 -6.7575 -0.8922 -3.3633 -14.9507 8.6207 5.3709 -0.1729 -8.3174 -0.0000 -0.0000 0.0000 0.0000 0.0000 0.0000 -5.2967 -0.1693 -9.6364 4.5956 -1.0741 18.2578 0.0000 0.0000 0.0000 -0.9795 2.5307 -9.7259 0.0000 0.0000 0.0000 -16.8891 -2.6125 1.4421 -61.7315 -17.8192 23.7643 -2.9048 -21.6350 -4.6036 13.9802 -2.6784 -0.9503 0.0000 0.0000 0.0000 18.3081 1.1939 1.1696 57.4652 16.8768 -0.6897 9.0462 13.4875 17.0718 -7.7391 0.3095 -0.3752 0.0000 0.0000 0.0000 -5.1149 -2.6464 -5.9053 0.5497 19.2161 4.2490 3.8829 -0.3246 -1.5178 -0.0000 0.0000 -0.0000
-68.0445 41.1427 31.3720 13.4046 77.6227 16.3555 0.0000 0.0000 0.0000 -3.0015 -6.9315 -0.9644 -3.0735 -14.4393 8.7351 5.0355 -0.1586 -8.4518 -0.0000 -0.0000 0.0000 0.0000 0.0000 0.0000 -4.9552 -0.0086 -9.8167 4.4914 -0.8815 18.5157 0.0000 0.0000 0.0000 -0.9950 2.5318 -9.2989 0.0000 0.0000 0.0000 -16.9601 -2.3800 1.3912 -62.0365 -17.2654 24.7693 -2.2851 -22.2036 -5.7369 14.1016 -2.6329 -0.9537 0.0000 0.0000 0.0000 18.4283 1.2788 1.1960 57.0824 16.5530 -4.3414 9.9411 11.6351 18.7225 -9.3876 -0.5736 -0.3940 0.0000 0.0000 0.0000 -4.9976 -2.3907 -6.1455 0.8121 19.3727 4.8545 3.6860 -0.2996 -1.7276 -0.0000 0.0000 -0.0000
-68.0972 41.1260 31.4195 12.8400 77.3721 15.6243 0.0000 0.0000 0.0000 -2.9230 -7.0121 -0.8939 -2.9029 -14.1329 8.7781 4.7617 -0.1474 -8.5624 -0.0000 -0.0000 0.0000 0.0000 0.0000 0.0000 -4.4788 0.1033 -9.9408 4.2500 -0.7073 18.8778 0.0000 0.0000 0.0000 -1.1726 2.5177 -9.1438 0.0000 0.0000 0.0000 -17.0312 -2.3241 1.3818 -62.2218 -16.7260 23.9415 -2.7649 -21.7731 -4.8575 14.4649 -2.7490 -0.9928 0.0000 0.0000 0.0000 18.5721 1.2137 1.1861 56.7844 16.4097 -9.0667 10.5031 9.0255 25.2566 -10.0997 0.3617 -0.4956 0.0000 0.0000 0.0000 -4.9085 -2.1076 -6.3218 1.1400 19.3686 5.5252 3.4733 -0.2730 -1.9643 -0.0000 0.0000 -0.0000
-68.1409 41.1058 31.4664 12.3424 77.2902 14.9623 0.0000 0.0000 0.0000 -2.7517 -6.9618 -0.8310 -2.9310 -14.0747 8.9158 4.6770 -0.1411 -8.6764 -0.0000 -0.0000 0.0000 0.0000 0.0000 0.0000 -4.1496 0.1408 -9.8628 4.2229 -0.6742 18.9420 0.0000 0.0000 0.0000 -1.3942 2.5343 -9.0549 0.0000 0.0000 0.0000 -17.2279 -2.3565 1.4001 -62.1904 -16.1961 20.7096 -4.5827 -20.2086 -1.0675 14.9698 -2.9733 -1.0560 0.0000 0.0000 0.0000 18.6482 1.2251 1.1923 56.6281 15.9965 -12.2159 10.4120 7.0523 32.0495 -9.7298 2.4609 -0.6355 0.0000 0.0000 0.0000 -4.8299 -1.7489 -6.5265 1.5021 19.1257 6.2672 3.2850 -0.2486 -2.2209 -0.0000 0.0000 -0.0000
